<svg viewBox="0 0 32 32" fill="none" xmlns="http://www.w3.org/2000/svg">
  <path
    d="M25.3778 8.03125H20.5336V5.40625C20.5336 4.07812 19.4556 3 18.1275 3C16.7994 3 15.7214 4.07812 15.7214 5.40625V8.03125H10.8772C10.251 8.03125 9.75 8.53249 9.75 9.15875V26.3438C9.75 26.97 10.251 27.4712 10.8772 27.4712H15.7214V18.375C15.7214 16.6406 17.1874 15.1744 18.9216 15.1744C20.6558 15.1744 21.9008 16.6406 21.9008 18.375V27.4712H25.3778C26.2634 27.4712 27 26.7347 27 25.8491V9.15875C27 8.53249 26.499 8.03125 25.3778 8.03125ZM7.5 2.0625C8.32843 2.0625 9 2.73407 9 3.5625C9 4.39093 8.32843 5.0625 7.5 5.0625C6.67157 5.0625 6 4.39093 6 3.5625C6 2.73407 6.67157 2.0625 7.5 2.0625ZM4.5 28.5375C4.5 27.6398 5.26142 26.8784 6.15903 26.8784H25.8409C26.7386 26.8784 27.5 27.6398 27.5 28.5375C27.5 29.4352 26.7386 30.1966 25.8409 30.1966H6.15903C5.26142 30.1966 4.5 29.4352 4.5 28.5375Z"
    fill="currentColor" />
</svg>